<mxfile host="65bd71144e">
    <diagram id="ansZr5Bz5ri7kylQeIJB" name="第 1 页">
        <mxGraphModel dx="1230" dy="614" grid="1" gridSize="10" guides="1" tooltips="1" connect="1" arrows="1" fold="1" page="1" pageScale="1" pageWidth="827" pageHeight="1169" math="0" shadow="0">
            <root>
                <mxCell id="0"/>
                <mxCell id="1" parent="0"/>
                <mxCell id="25" value="" style="group" parent="1" vertex="1" connectable="0">
                    <mxGeometry x="330" y="350" width="270" height="450" as="geometry"/>
                </mxCell>
                <mxCell id="23" value="" style="rounded=0;whiteSpace=wrap;html=1;" parent="25" vertex="1">
                    <mxGeometry x="10" y="20" width="260" height="430" as="geometry"/>
                </mxCell>
                <mxCell id="8" value="" style="group" parent="25" vertex="1" connectable="0">
                    <mxGeometry x="50" y="40" width="180.00000000000003" height="128" as="geometry"/>
                </mxCell>
                <mxCell id="5" value="window&lt;br&gt;msg: undefined&lt;br&gt;foo: 0xa00&lt;br&gt;bar: 0xb00" style="rounded=0;whiteSpace=wrap;html=1;" parent="8" vertex="1">
                    <mxGeometry x="7.826086956521742" y="20" width="172.17391304347828" height="108" as="geometry"/>
                </mxCell>
                <mxCell id="6" value="Global Object" style="text;html=1;align=center;verticalAlign=middle;resizable=0;points=[];autosize=1;strokeColor=none;fillColor=none;" parent="8" vertex="1">
                    <mxGeometry width="90" height="20" as="geometry"/>
                </mxCell>
                <mxCell id="15" value="" style="group" parent="25" vertex="1" connectable="0">
                    <mxGeometry x="50" y="210" width="170" height="90" as="geometry"/>
                </mxCell>
                <mxCell id="11" value="[parent scope]: GO&lt;br&gt;函数代码块" style="rounded=0;whiteSpace=wrap;html=1;" parent="15" vertex="1">
                    <mxGeometry x="12.14285714285714" y="20" width="157.85714285714283" height="70.00000000000001" as="geometry"/>
                </mxCell>
                <mxCell id="12" value="foo函数对象：0xa00" style="text;html=1;align=center;verticalAlign=middle;resizable=0;points=[];autosize=1;strokeColor=none;fillColor=none;" parent="15" vertex="1">
                    <mxGeometry width="130" height="20" as="geometry"/>
                </mxCell>
                <mxCell id="17" value="" style="group" parent="25" vertex="1" connectable="0">
                    <mxGeometry x="50" y="330" width="170" height="90" as="geometry"/>
                </mxCell>
                <mxCell id="18" value="[parent scope]: GO&lt;br&gt;函数代码块" style="rounded=0;whiteSpace=wrap;html=1;" parent="17" vertex="1">
                    <mxGeometry x="12.14285714285714" y="20" width="157.85714285714283" height="70.00000000000001" as="geometry"/>
                </mxCell>
                <mxCell id="19" value="bar函数对象：0xb00" style="text;html=1;align=center;verticalAlign=middle;resizable=0;points=[];autosize=1;strokeColor=none;fillColor=none;" parent="17" vertex="1">
                    <mxGeometry width="130" height="20" as="geometry"/>
                </mxCell>
                <mxCell id="24" value="0、初始化GO以及为函数定义分配堆内存空间" style="text;html=1;align=center;verticalAlign=middle;resizable=0;points=[];autosize=1;strokeColor=none;fillColor=none;" parent="25" vertex="1">
                    <mxGeometry width="260" height="20" as="geometry"/>
                </mxCell>
                <mxCell id="27" value="" style="group" parent="1" vertex="1" connectable="0">
                    <mxGeometry x="620" y="350" width="270" height="450" as="geometry"/>
                </mxCell>
                <mxCell id="28" value="" style="rounded=0;whiteSpace=wrap;html=1;" parent="27" vertex="1">
                    <mxGeometry x="10" y="20" width="260" height="430" as="geometry"/>
                </mxCell>
                <mxCell id="29" value="" style="group" parent="27" vertex="1" connectable="0">
                    <mxGeometry x="50" y="40" width="180.00000000000003" height="128" as="geometry"/>
                </mxCell>
                <mxCell id="30" value="window&lt;br&gt;msg: Hello Global&lt;br&gt;foo: 0xa00&lt;br&gt;bar: 0xb00" style="rounded=0;whiteSpace=wrap;html=1;" parent="29" vertex="1">
                    <mxGeometry x="7.826086956521742" y="20" width="172.17391304347828" height="108" as="geometry"/>
                </mxCell>
                <mxCell id="31" value="Global Object" style="text;html=1;align=center;verticalAlign=middle;resizable=0;points=[];autosize=1;strokeColor=none;fillColor=none;" parent="29" vertex="1">
                    <mxGeometry width="90" height="20" as="geometry"/>
                </mxCell>
                <mxCell id="32" value="" style="group" parent="27" vertex="1" connectable="0">
                    <mxGeometry x="50" y="210" width="170" height="90" as="geometry"/>
                </mxCell>
                <mxCell id="33" value="[parent scope]: GO&lt;br&gt;函数代码块" style="rounded=0;whiteSpace=wrap;html=1;" parent="32" vertex="1">
                    <mxGeometry x="12.14285714285714" y="20" width="157.85714285714283" height="70.00000000000001" as="geometry"/>
                </mxCell>
                <mxCell id="34" value="foo函数对象：0xa00" style="text;html=1;align=center;verticalAlign=middle;resizable=0;points=[];autosize=1;strokeColor=none;fillColor=none;" parent="32" vertex="1">
                    <mxGeometry width="130" height="20" as="geometry"/>
                </mxCell>
                <mxCell id="35" value="" style="group" parent="27" vertex="1" connectable="0">
                    <mxGeometry x="50" y="330" width="170" height="90" as="geometry"/>
                </mxCell>
                <mxCell id="36" value="[parent scope]: GO&lt;br&gt;函数代码块" style="rounded=0;whiteSpace=wrap;html=1;" parent="35" vertex="1">
                    <mxGeometry x="12.14285714285714" y="20" width="157.85714285714283" height="70.00000000000001" as="geometry"/>
                </mxCell>
                <mxCell id="37" value="bar函数对象：0xb00" style="text;html=1;align=center;verticalAlign=middle;resizable=0;points=[];autosize=1;strokeColor=none;fillColor=none;" parent="35" vertex="1">
                    <mxGeometry width="130" height="20" as="geometry"/>
                </mxCell>
                <mxCell id="38" value="1、压栈后执行代码 msg = 'Hello Global'" style="text;html=1;align=center;verticalAlign=middle;resizable=0;points=[];autosize=1;strokeColor=none;fillColor=none;" parent="27" vertex="1">
                    <mxGeometry x="15" width="230" height="20" as="geometry"/>
                </mxCell>
                <mxCell id="39" value="" style="group" parent="1" vertex="1" connectable="0">
                    <mxGeometry x="370" y="840" width="520" height="450" as="geometry"/>
                </mxCell>
                <mxCell id="40" value="" style="rounded=0;whiteSpace=wrap;html=1;" parent="39" vertex="1">
                    <mxGeometry x="-30" y="20" width="550" height="430" as="geometry"/>
                </mxCell>
                <mxCell id="41" value="" style="group" parent="39" vertex="1" connectable="0">
                    <mxGeometry x="55.73770491803279" y="40" width="200.65573770491807" height="128" as="geometry"/>
                </mxCell>
                <mxCell id="42" value="window&lt;br&gt;msg: Hello Global&lt;br&gt;foo: 0xa00&lt;br&gt;bar: 0xb00" style="rounded=0;whiteSpace=wrap;html=1;" parent="41" vertex="1">
                    <mxGeometry x="8.724162508909483" y="20" width="191.9315751960086" height="108" as="geometry"/>
                </mxCell>
                <mxCell id="43" value="Global Object" style="text;html=1;align=center;verticalAlign=middle;resizable=0;points=[];autosize=1;strokeColor=none;fillColor=none;" parent="41" vertex="1">
                    <mxGeometry width="90" height="20" as="geometry"/>
                </mxCell>
                <mxCell id="44" value="" style="group" parent="39" vertex="1" connectable="0">
                    <mxGeometry x="55.73770491803279" y="210" width="189.50819672131146" height="90" as="geometry"/>
                </mxCell>
                <mxCell id="45" value="[parent scope]: GO&lt;br&gt;函数代码块" style="rounded=0;whiteSpace=wrap;html=1;" parent="44" vertex="1">
                    <mxGeometry x="13.53629976580796" y="20" width="175.9718969555035" height="70.00000000000001" as="geometry"/>
                </mxCell>
                <mxCell id="46" value="foo函数对象：0xa00" style="text;html=1;align=center;verticalAlign=middle;resizable=0;points=[];autosize=1;strokeColor=none;fillColor=none;" parent="44" vertex="1">
                    <mxGeometry width="130" height="20" as="geometry"/>
                </mxCell>
                <mxCell id="47" value="" style="group" parent="39" vertex="1" connectable="0">
                    <mxGeometry x="55.73770491803279" y="330" width="189.50819672131146" height="90" as="geometry"/>
                </mxCell>
                <mxCell id="48" value="[parent scope]: GO&lt;br&gt;函数代码块" style="rounded=0;whiteSpace=wrap;html=1;" parent="47" vertex="1">
                    <mxGeometry x="13.53629976580796" y="20" width="175.9718969555035" height="70.00000000000001" as="geometry"/>
                </mxCell>
                <mxCell id="49" value="bar函数对象：0xb00" style="text;html=1;align=center;verticalAlign=middle;resizable=0;points=[];autosize=1;strokeColor=none;fillColor=none;" parent="47" vertex="1">
                    <mxGeometry width="130" height="20" as="geometry"/>
                </mxCell>
                <mxCell id="50" value="2、调用bar()函数开始创建对应AO并存入函数执行上下文对象中" style="text;html=1;align=center;verticalAlign=middle;resizable=0;points=[];autosize=1;strokeColor=none;fillColor=none;" parent="39" vertex="1">
                    <mxGeometry x="-40.003934426229506" width="350" height="20" as="geometry"/>
                </mxCell>
                <mxCell id="51" value="" style="group" parent="39" vertex="1" connectable="0">
                    <mxGeometry x="280" y="50" width="140" height="100" as="geometry"/>
                </mxCell>
                <mxCell id="52" value="msg: undefined" style="rounded=0;whiteSpace=wrap;html=1;" parent="51" vertex="1">
                    <mxGeometry x="6.086956521739131" y="15.625" width="133.91304347826087" height="84.375" as="geometry"/>
                </mxCell>
                <mxCell id="53" value="Activation Object(bar)" style="text;html=1;align=center;verticalAlign=middle;resizable=0;points=[];autosize=1;strokeColor=none;fillColor=none;" parent="51" vertex="1">
                    <mxGeometry y="-4.37" width="130" height="20" as="geometry"/>
                </mxCell>
                <mxCell id="54" value="" style="group" parent="1" vertex="1" connectable="0">
                    <mxGeometry x="960" y="840" width="520" height="450" as="geometry"/>
                </mxCell>
                <mxCell id="55" value="" style="rounded=0;whiteSpace=wrap;html=1;" parent="54" vertex="1">
                    <mxGeometry x="-30" y="20" width="550" height="430" as="geometry"/>
                </mxCell>
                <mxCell id="56" value="" style="group" parent="54" vertex="1" connectable="0">
                    <mxGeometry x="55.73770491803279" y="40" width="200.65573770491807" height="128" as="geometry"/>
                </mxCell>
                <mxCell id="57" value="window&lt;br&gt;msg: Hello Global&lt;br&gt;foo: 0xa00&lt;br&gt;bar: 0xb00" style="rounded=0;whiteSpace=wrap;html=1;" parent="56" vertex="1">
                    <mxGeometry x="8.724162508909483" y="20" width="191.9315751960086" height="108" as="geometry"/>
                </mxCell>
                <mxCell id="58" value="Global Object" style="text;html=1;align=center;verticalAlign=middle;resizable=0;points=[];autosize=1;strokeColor=none;fillColor=none;" parent="56" vertex="1">
                    <mxGeometry width="90" height="20" as="geometry"/>
                </mxCell>
                <mxCell id="59" value="" style="group" parent="54" vertex="1" connectable="0">
                    <mxGeometry x="55.73770491803279" y="210" width="189.50819672131146" height="90" as="geometry"/>
                </mxCell>
                <mxCell id="60" value="[parent scope]: GO&lt;br&gt;函数代码块" style="rounded=0;whiteSpace=wrap;html=1;" parent="59" vertex="1">
                    <mxGeometry x="13.53629976580796" y="20" width="175.9718969555035" height="70.00000000000001" as="geometry"/>
                </mxCell>
                <mxCell id="61" value="foo函数对象：0xa00" style="text;html=1;align=center;verticalAlign=middle;resizable=0;points=[];autosize=1;strokeColor=none;fillColor=none;" parent="59" vertex="1">
                    <mxGeometry width="130" height="20" as="geometry"/>
                </mxCell>
                <mxCell id="62" value="" style="group" parent="54" vertex="1" connectable="0">
                    <mxGeometry x="55.73770491803279" y="330" width="189.50819672131146" height="90" as="geometry"/>
                </mxCell>
                <mxCell id="63" value="[parent scope]: GO&lt;br&gt;函数代码块" style="rounded=0;whiteSpace=wrap;html=1;" parent="62" vertex="1">
                    <mxGeometry x="13.53629976580796" y="20" width="175.9718969555035" height="70.00000000000001" as="geometry"/>
                </mxCell>
                <mxCell id="64" value="bar函数对象：0xb00" style="text;html=1;align=center;verticalAlign=middle;resizable=0;points=[];autosize=1;strokeColor=none;fillColor=none;" parent="62" vertex="1">
                    <mxGeometry width="130" height="20" as="geometry"/>
                </mxCell>
                <mxCell id="65" value="2、bar函数中执行到msg = &quot;Hello Bar&quot;" style="text;html=1;align=center;verticalAlign=middle;resizable=0;points=[];autosize=1;strokeColor=none;fillColor=none;" parent="54" vertex="1">
                    <mxGeometry x="24.996065573770494" width="220" height="20" as="geometry"/>
                </mxCell>
                <mxCell id="66" value="" style="group" parent="54" vertex="1" connectable="0">
                    <mxGeometry x="280" y="50" width="140" height="100" as="geometry"/>
                </mxCell>
                <mxCell id="67" value="msg: 'Hello Bar'" style="rounded=0;whiteSpace=wrap;html=1;" parent="66" vertex="1">
                    <mxGeometry x="6.086956521739131" y="15.625" width="133.91304347826087" height="84.375" as="geometry"/>
                </mxCell>
                <mxCell id="68" value="Activation Object(bar)" style="text;html=1;align=center;verticalAlign=middle;resizable=0;points=[];autosize=1;strokeColor=none;fillColor=none;" parent="66" vertex="1">
                    <mxGeometry y="-4.37" width="130" height="20" as="geometry"/>
                </mxCell>
                <mxCell id="76" value="" style="group" parent="1" vertex="1" connectable="0">
                    <mxGeometry x="30" y="350" width="280" height="660" as="geometry"/>
                </mxCell>
                <mxCell id="2" value="" style="rounded=0;whiteSpace=wrap;html=1;" parent="76" vertex="1">
                    <mxGeometry x="11.200000000000001" y="21.9759375" width="268.8" height="638.0240625" as="geometry"/>
                </mxCell>
                <mxCell id="75" value="" style="edgeStyle=none;html=1;" parent="76" source="3" target="2" edge="1">
                    <mxGeometry relative="1" as="geometry"/>
                </mxCell>
                <mxCell id="3" value="Execution Context Stack" style="text;html=1;align=center;verticalAlign=middle;resizable=0;points=[];autosize=1;strokeColor=none;fillColor=none;" parent="76" vertex="1">
                    <mxGeometry width="150" height="20" as="geometry"/>
                </mxCell>
                <mxCell id="22" value="" style="group" parent="76" vertex="1" connectable="0">
                    <mxGeometry x="22.400000000000002" y="484.6875" width="235.20000000000002" height="165" as="geometry"/>
                </mxCell>
                <mxCell id="9" value="" style="rounded=0;whiteSpace=wrap;html=1;" parent="22" vertex="1">
                    <mxGeometry x="11.200000000000001" y="20.625" width="224.00000000000003" height="144.375" as="geometry"/>
                </mxCell>
                <mxCell id="10" value="1、初始化压栈" style="text;html=1;align=center;verticalAlign=middle;resizable=0;points=[];autosize=1;strokeColor=none;fillColor=none;" parent="22" vertex="1">
                    <mxGeometry x="-15" width="90" height="20" as="geometry"/>
                </mxCell>
                <mxCell id="20" value="Variable Object: GO&lt;br&gt;" style="rounded=0;whiteSpace=wrap;html=1;" parent="22" vertex="1">
                    <mxGeometry x="36.400000000000006" y="41.25" width="173.60000000000002" height="51.5625" as="geometry"/>
                </mxCell>
                <mxCell id="21" value="执行代码&lt;br&gt;bar()" style="rounded=0;whiteSpace=wrap;html=1;" parent="22" vertex="1">
                    <mxGeometry x="36.400000000000006" y="103.125" width="173.60000000000002" height="51.5625" as="geometry"/>
                </mxCell>
                <mxCell id="69" value="" style="group" parent="76" vertex="1" connectable="0">
                    <mxGeometry x="22.400000000000002" y="309.375" width="235.20000000000002" height="165" as="geometry"/>
                </mxCell>
                <mxCell id="70" value="" style="rounded=0;whiteSpace=wrap;html=1;" parent="69" vertex="1">
                    <mxGeometry x="11.200000000000001" y="20.625" width="224.00000000000003" height="144.375" as="geometry"/>
                </mxCell>
                <mxCell id="71" value="2、FEC: bar" style="text;html=1;align=center;verticalAlign=middle;resizable=0;points=[];autosize=1;strokeColor=none;fillColor=none;" parent="69" vertex="1">
                    <mxGeometry x="-10" width="80" height="20" as="geometry"/>
                </mxCell>
                <mxCell id="72" value="Variable Object: AO(bar)&lt;br&gt;scope chain: 自己的VO(也就是AO) + [parent scope]: GO" style="rounded=0;whiteSpace=wrap;html=1;" parent="69" vertex="1">
                    <mxGeometry x="36.400000000000006" y="41.25" width="173.60000000000002" height="51.5625" as="geometry"/>
                </mxCell>
                <mxCell id="73" value="执行代码&lt;br&gt;msg = 'Hello Bar'&lt;br&gt;foo()" style="rounded=0;whiteSpace=wrap;html=1;" parent="69" vertex="1">
                    <mxGeometry x="36.400000000000006" y="103.125" width="173.60000000000002" height="51.5625" as="geometry"/>
                </mxCell>
                <mxCell id="95" value="" style="group" parent="76" vertex="1" connectable="0">
                    <mxGeometry x="22.400000000000006" y="130.005" width="235.20000000000002" height="165" as="geometry"/>
                </mxCell>
                <mxCell id="96" value="" style="rounded=0;whiteSpace=wrap;html=1;" parent="95" vertex="1">
                    <mxGeometry x="11.200000000000001" y="20.625" width="224.00000000000003" height="144.375" as="geometry"/>
                </mxCell>
                <mxCell id="97" value="3、FEC: foo" style="text;html=1;align=center;verticalAlign=middle;resizable=0;points=[];autosize=1;strokeColor=none;fillColor=none;" parent="95" vertex="1">
                    <mxGeometry x="-10" width="80" height="20" as="geometry"/>
                </mxCell>
                <mxCell id="98" value="Variable Object: AO(foo)&lt;br&gt;scope chain: 自己的VO(也就是AO) + [parent scope]: GO" style="rounded=0;whiteSpace=wrap;html=1;" parent="95" vertex="1">
                    <mxGeometry x="36.400000000000006" y="41.25" width="173.60000000000002" height="51.5625" as="geometry"/>
                </mxCell>
                <mxCell id="99" value="执行代码&lt;br&gt;msg = 'Hello Bar'&lt;br&gt;foo()" style="rounded=0;whiteSpace=wrap;html=1;" parent="95" vertex="1">
                    <mxGeometry x="36.400000000000006" y="103.125" width="173.60000000000002" height="51.5625" as="geometry"/>
                </mxCell>
                <mxCell id="77" value="" style="group" parent="1" vertex="1" connectable="0">
                    <mxGeometry x="370" y="1320" width="520" height="450" as="geometry"/>
                </mxCell>
                <mxCell id="78" value="" style="rounded=0;whiteSpace=wrap;html=1;" parent="77" vertex="1">
                    <mxGeometry x="-30" y="20" width="550" height="430" as="geometry"/>
                </mxCell>
                <mxCell id="79" value="" style="group" parent="77" vertex="1" connectable="0">
                    <mxGeometry x="55.73770491803279" y="40" width="200.65573770491807" height="128" as="geometry"/>
                </mxCell>
                <mxCell id="80" value="window&lt;br&gt;msg: Hello Global&lt;br&gt;foo: 0xa00&lt;br&gt;bar: 0xb00" style="rounded=0;whiteSpace=wrap;html=1;" parent="79" vertex="1">
                    <mxGeometry x="8.724162508909483" y="20" width="191.9315751960086" height="108" as="geometry"/>
                </mxCell>
                <mxCell id="81" value="Global Object" style="text;html=1;align=center;verticalAlign=middle;resizable=0;points=[];autosize=1;strokeColor=none;fillColor=none;" parent="79" vertex="1">
                    <mxGeometry width="90" height="20" as="geometry"/>
                </mxCell>
                <mxCell id="82" value="" style="group" parent="77" vertex="1" connectable="0">
                    <mxGeometry x="55.73770491803279" y="210" width="189.50819672131146" height="90" as="geometry"/>
                </mxCell>
                <mxCell id="83" value="[parent scope]: GO&lt;br&gt;函数代码块" style="rounded=0;whiteSpace=wrap;html=1;" parent="82" vertex="1">
                    <mxGeometry x="13.53629976580796" y="20" width="175.9718969555035" height="70.00000000000001" as="geometry"/>
                </mxCell>
                <mxCell id="84" value="foo函数对象：0xa00" style="text;html=1;align=center;verticalAlign=middle;resizable=0;points=[];autosize=1;strokeColor=none;fillColor=none;" parent="82" vertex="1">
                    <mxGeometry width="130" height="20" as="geometry"/>
                </mxCell>
                <mxCell id="85" value="" style="group" parent="77" vertex="1" connectable="0">
                    <mxGeometry x="55.73770491803279" y="330" width="189.50819672131146" height="90" as="geometry"/>
                </mxCell>
                <mxCell id="86" value="[parent scope]: GO&lt;br&gt;函数代码块" style="rounded=0;whiteSpace=wrap;html=1;" parent="85" vertex="1">
                    <mxGeometry x="13.53629976580796" y="20" width="175.9718969555035" height="70.00000000000001" as="geometry"/>
                </mxCell>
                <mxCell id="87" value="bar函数对象：0xb00" style="text;html=1;align=center;verticalAlign=middle;resizable=0;points=[];autosize=1;strokeColor=none;fillColor=none;" parent="85" vertex="1">
                    <mxGeometry width="130" height="20" as="geometry"/>
                </mxCell>
                <mxCell id="88" value="3、bar函数中执行到 foo() -- 创建foo的AO对象，并将AO的FEC压入栈" style="text;html=1;align=center;verticalAlign=middle;resizable=0;points=[];autosize=1;strokeColor=none;fillColor=none;" parent="77" vertex="1">
                    <mxGeometry x="-60.003934426229506" width="390" height="20" as="geometry"/>
                </mxCell>
                <mxCell id="89" value="" style="group" parent="77" vertex="1" connectable="0">
                    <mxGeometry x="280" y="50" width="140" height="100" as="geometry"/>
                </mxCell>
                <mxCell id="90" value="msg: 'Hello Bar'" style="rounded=0;whiteSpace=wrap;html=1;" parent="89" vertex="1">
                    <mxGeometry x="6.086956521739131" y="15.625" width="133.91304347826087" height="84.375" as="geometry"/>
                </mxCell>
                <mxCell id="91" value="Activation Object(bar)" style="text;html=1;align=center;verticalAlign=middle;resizable=0;points=[];autosize=1;strokeColor=none;fillColor=none;" parent="89" vertex="1">
                    <mxGeometry y="-4.37" width="130" height="20" as="geometry"/>
                </mxCell>
                <mxCell id="92" value="" style="group" parent="77" vertex="1" connectable="0">
                    <mxGeometry x="280" y="175" width="140" height="100" as="geometry"/>
                </mxCell>
                <mxCell id="93" value="{ }" style="rounded=0;whiteSpace=wrap;html=1;" parent="92" vertex="1">
                    <mxGeometry x="6.086956521739131" y="15.625" width="133.91304347826087" height="84.375" as="geometry"/>
                </mxCell>
                <mxCell id="94" value="Activation Object(foo)" style="text;html=1;align=center;verticalAlign=middle;resizable=0;points=[];autosize=1;strokeColor=none;fillColor=none;" parent="92" vertex="1">
                    <mxGeometry y="-4.37" width="130" height="20" as="geometry"/>
                </mxCell>
                <mxCell id="100" value="" style="group" parent="1" vertex="1" connectable="0">
                    <mxGeometry x="960" y="1320" width="520" height="450" as="geometry"/>
                </mxCell>
                <mxCell id="101" value="" style="rounded=0;whiteSpace=wrap;html=1;" parent="100" vertex="1">
                    <mxGeometry x="-30" y="20" width="550" height="430" as="geometry"/>
                </mxCell>
                <mxCell id="102" value="" style="group" parent="100" vertex="1" connectable="0">
                    <mxGeometry x="55.73770491803279" y="40" width="200.65573770491807" height="128" as="geometry"/>
                </mxCell>
                <mxCell id="103" value="window&lt;br&gt;msg: Hello Global&lt;br&gt;foo: 0xa00&lt;br&gt;bar: 0xb00" style="rounded=0;whiteSpace=wrap;html=1;" parent="102" vertex="1">
                    <mxGeometry x="8.724162508909483" y="20" width="191.9315751960086" height="108" as="geometry"/>
                </mxCell>
                <mxCell id="104" value="Global Object" style="text;html=1;align=center;verticalAlign=middle;resizable=0;points=[];autosize=1;strokeColor=none;fillColor=none;" parent="102" vertex="1">
                    <mxGeometry width="90" height="20" as="geometry"/>
                </mxCell>
                <mxCell id="105" value="" style="group" parent="100" vertex="1" connectable="0">
                    <mxGeometry x="55.73770491803279" y="210" width="189.50819672131146" height="90" as="geometry"/>
                </mxCell>
                <mxCell id="106" value="[parent scope]: GO&lt;br&gt;函数代码块" style="rounded=0;whiteSpace=wrap;html=1;" parent="105" vertex="1">
                    <mxGeometry x="13.53629976580796" y="20" width="175.9718969555035" height="70.00000000000001" as="geometry"/>
                </mxCell>
                <mxCell id="107" value="foo函数对象：0xa00" style="text;html=1;align=center;verticalAlign=middle;resizable=0;points=[];autosize=1;strokeColor=none;fillColor=none;" parent="105" vertex="1">
                    <mxGeometry width="130" height="20" as="geometry"/>
                </mxCell>
                <mxCell id="108" value="" style="group" parent="100" vertex="1" connectable="0">
                    <mxGeometry x="55.73770491803279" y="330" width="189.50819672131146" height="90" as="geometry"/>
                </mxCell>
                <mxCell id="109" value="[parent scope]: GO&lt;br&gt;函数代码块" style="rounded=0;whiteSpace=wrap;html=1;" parent="108" vertex="1">
                    <mxGeometry x="13.53629976580796" y="20" width="175.9718969555035" height="70.00000000000001" as="geometry"/>
                </mxCell>
                <mxCell id="110" value="bar函数对象：0xb00" style="text;html=1;align=center;verticalAlign=middle;resizable=0;points=[];autosize=1;strokeColor=none;fillColor=none;" parent="108" vertex="1">
                    <mxGeometry width="130" height="20" as="geometry"/>
                </mxCell>
                <mxCell id="111" value="3、foo 中执行到 console.log(msg)，由于自己的VO中没有msg，因此沿着scope chain 到 GO 中找 输出 Hello Global" style="text;html=1;align=center;verticalAlign=middle;resizable=0;points=[];autosize=1;strokeColor=none;fillColor=none;" parent="100" vertex="1">
                    <mxGeometry x="-34.003934426229506" width="630" height="20" as="geometry"/>
                </mxCell>
                <mxCell id="112" value="" style="group" parent="100" vertex="1" connectable="0">
                    <mxGeometry x="280" y="50" width="140" height="100" as="geometry"/>
                </mxCell>
                <mxCell id="113" value="msg: 'Hello Bar'" style="rounded=0;whiteSpace=wrap;html=1;" parent="112" vertex="1">
                    <mxGeometry x="6.086956521739131" y="15.625" width="133.91304347826087" height="84.375" as="geometry"/>
                </mxCell>
                <mxCell id="114" value="Activation Object(bar)" style="text;html=1;align=center;verticalAlign=middle;resizable=0;points=[];autosize=1;strokeColor=none;fillColor=none;" parent="112" vertex="1">
                    <mxGeometry y="-4.37" width="130" height="20" as="geometry"/>
                </mxCell>
                <mxCell id="115" value="" style="group" parent="100" vertex="1" connectable="0">
                    <mxGeometry x="280" y="175" width="140" height="100" as="geometry"/>
                </mxCell>
                <mxCell id="116" value="{ }" style="rounded=0;whiteSpace=wrap;html=1;" parent="115" vertex="1">
                    <mxGeometry x="6.086956521739131" y="15.625" width="133.91304347826087" height="84.375" as="geometry"/>
                </mxCell>
                <mxCell id="117" value="Activation Object(foo)" style="text;html=1;align=center;verticalAlign=middle;resizable=0;points=[];autosize=1;strokeColor=none;fillColor=none;" parent="115" vertex="1">
                    <mxGeometry y="-4.37" width="130" height="20" as="geometry"/>
                </mxCell>
            </root>
        </mxGraphModel>
    </diagram>
</mxfile>